<svg width="1200" height="800" viewBox="0 0 1200 800" fill="none" xmlns="http://www.w3.org/2000/svg">
  <rect width="1200" height="800" rx="48" fill="#08111F"/>
  <circle cx="1030" cy="130" r="220" fill="#16A34A" fill-opacity="0.24"/>
  <circle cx="180" cy="700" r="260" fill="#7C3AED" fill-opacity="0.26"/>
  <rect x="96" y="86" width="1008" height="628" rx="36" fill="#0F172A" stroke="#334155" stroke-width="2"/>
  <rect x="136" y="126" width="930" height="78" rx="22" fill="#111C32"/>
  <text x="164" y="176" fill="#F8FAFC" font-family="Inter, Arial, sans-serif" font-size="34" font-weight="800">HabitFlow</text>
  <text x="370" y="176" fill="#86EFAC" font-family="Inter, Arial, sans-serif" font-size="22" font-weight="700">AI habit schedule generated</text>
  <rect x="802" y="145" width="224" height="36" rx="18" fill="#16A34A" fill-opacity="0.18" stroke="#22C55E"/>
  <text x="836" y="169" fill="#BBF7D0" font-family="Inter, Arial, sans-serif" font-size="15" font-weight="700">Gemini AI active</text>
  <rect x="136" y="244" width="285" height="390" rx="28" fill="#111827" stroke="#334155"/>
  <text x="168" y="293" fill="#CBD5E1" font-family="Inter, Arial, sans-serif" font-size="20" font-weight="700">Today's routine</text>
  <g font-family="Inter, Arial, sans-serif" font-size="17" font-weight="700">
    <rect x="168" y="330" width="221" height="58" rx="16" fill="#172554" stroke="#3B82F6"/>
    <text x="192" y="366" fill="#DBEAFE">Morning run</text>
    <rect x="168" y="410" width="221" height="58" rx="16" fill="#14532D" stroke="#22C55E"/>
    <text x="192" y="446" fill="#DCFCE7">Deep work block</text>
    <rect x="168" y="490" width="221" height="58" rx="16" fill="#4C1D95" stroke="#A78BFA"/>
    <text x="192" y="526" fill="#F3E8FF">Read 20 pages</text>
  </g>
  <rect x="462" y="244" width="310" height="390" rx="28" fill="#111827" stroke="#334155"/>
  <text x="496" y="293" fill="#CBD5E1" font-family="Inter, Arial, sans-serif" font-size="20" font-weight="700">Gamification</text>
  <circle cx="617" cy="424" r="96" fill="#F59E0B" fill-opacity="0.14" stroke="#FBBF24" stroke-width="16"/>
  <text x="559" y="412" fill="#FEF3C7" font-family="Inter, Arial, sans-serif" font-size="26" font-weight="900">Level 7</text>
  <text x="541" y="455" fill="#FDE68A" font-family="Inter, Arial, sans-serif" font-size="42" font-weight="900">3,840 XP</text>
  <rect x="508" y="560" width="218" height="18" rx="9" fill="#1E293B"/>
  <rect x="508" y="560" width="168" height="18" rx="9" fill="#22C55E"/>
  <text x="542" y="608" fill="#A7F3D0" font-family="Inter, Arial, sans-serif" font-size="17" font-weight="700">18 day streak</text>
  <rect x="813" y="244" width="253" height="390" rx="28" fill="#111827" stroke="#334155"/>
  <text x="846" y="293" fill="#CBD5E1" font-family="Inter, Arial, sans-serif" font-size="20" font-weight="700">Realtime progress</text>
  <polyline points="850,548 895,500 938,520 982,430 1028,380" stroke="#22C55E" stroke-width="8" stroke-linecap="round" stroke-linejoin="round"/>
  <g fill="#22C55E">
    <circle cx="850" cy="548" r="10"/><circle cx="895" cy="500" r="10"/><circle cx="938" cy="520" r="10"/><circle cx="982" cy="430" r="10"/><circle cx="1028" cy="380" r="10"/>
  </g>
</svg>
