<svg width="1200" height="800" viewBox="0 0 1200 800" fill="none" xmlns="http://www.w3.org/2000/svg">
  <rect width="1200" height="800" rx="48" fill="#070A16"/>
  <circle cx="980" cy="120" r="240" fill="#2563EB" fill-opacity="0.23"/>
  <circle cx="180" cy="690" r="260" fill="#A855F7" fill-opacity="0.18"/>
  <rect x="90" y="82" width="1020" height="636" rx="34" fill="#0F172A" stroke="#334155" stroke-width="2"/>
  <rect x="126" y="118" width="948" height="74" rx="20" fill="#111C32"/>
  <text x="158" y="165" fill="#F8FAFC" font-family="Inter, Arial, sans-serif" font-size="34" font-weight="900">Nexus PMS</text>
  <rect x="822" y="137" width="208" height="36" rx="18" fill="#2563EB" fill-opacity="0.2" stroke="#60A5FA"/>
  <text x="857" y="161" fill="#DBEAFE" font-family="Inter, Arial, sans-serif" font-size="15" font-weight="800">Self-hosted stack</text>
  <rect x="126" y="232" width="284" height="420" rx="28" fill="#111827" stroke="#334155"/>
  <text x="160" y="281" fill="#CBD5E1" font-family="Inter, Arial, sans-serif" font-size="21" font-weight="800">Projects</text>
  <g font-family="Inter, Arial, sans-serif" font-size="17" font-weight="700">
    <rect x="160" y="318" width="216" height="58" rx="16" fill="#1E3A8A" stroke="#3B82F6"/><text x="184" y="354" fill="#DBEAFE">CRM migration</text>
    <rect x="160" y="394" width="216" height="58" rx="16" fill="#312E81" stroke="#818CF8"/><text x="184" y="430" fill="#E0E7FF">Website launch</text>
    <rect x="160" y="470" width="216" height="58" rx="16" fill="#3B0764" stroke="#C084FC"/><text x="184" y="506" fill="#F3E8FF">Mobile redesign</text>
  </g>
  <rect x="454" y="232" width="338" height="420" rx="28" fill="#111827" stroke="#334155"/>
  <text x="490" y="281" fill="#CBD5E1" font-family="Inter, Arial, sans-serif" font-size="21" font-weight="800">Kanban board</text>
  <g>
    <rect x="490" y="318" width="84" height="284" rx="14" fill="#172554"/><rect x="602" y="318" width="84" height="284" rx="14" fill="#1E1B4B"/><rect x="714" y="318" width="42" height="284" rx="14" fill="#14532D"/>
    <rect x="506" y="350" width="52" height="62" rx="10" fill="#60A5FA" fill-opacity="0.35"/><rect x="506" y="432" width="52" height="84" rx="10" fill="#60A5FA" fill-opacity="0.35"/>
    <rect x="618" y="350" width="52" height="104" rx="10" fill="#A78BFA" fill-opacity="0.35"/><rect x="618" y="474" width="52" height="54" rx="10" fill="#A78BFA" fill-opacity="0.35"/>
    <rect x="724" y="350" width="22" height="142" rx="10" fill="#86EFAC" fill-opacity="0.45"/>
  </g>
  <rect x="836" y="232" width="238" height="420" rx="28" fill="#111827" stroke="#334155"/>
  <text x="868" y="281" fill="#CBD5E1" font-family="Inter, Arial, sans-serif" font-size="21" font-weight="800">Team messages</text>
  <rect x="868" y="326" width="150" height="52" rx="18" fill="#1E293B"/>
  <rect x="905" y="398" width="126" height="52" rx="18" fill="#2563EB" fill-opacity="0.55"/>
  <rect x="868" y="470" width="164" height="52" rx="18" fill="#1E293B"/>
  <rect x="868" y="566" width="164" height="38" rx="19" fill="#020617" stroke="#334155"/>
  <text x="894" y="590" fill="#94A3B8" font-family="Inter, Arial, sans-serif" font-size="15" font-weight="700">Attach files...</text>
</svg>
